<mxfile host="app.diagrams.net" modified="2023-06-14T01:14:05.622Z" agent="Mozilla/5.0 (Windows NT 10.0; Win64; x64; rv:109.0) Gecko/20100101 Firefox/113.0" etag="2vxWCth8gZ8dujnizjjc" version="21.3.6" type="github">
  <diagram name="底层配置" id="HVHl0cKK9JbBUIlgmwC_">
    <mxGraphModel dx="1210" dy="612" grid="1" gridSize="10" guides="1" tooltips="1" connect="1" arrows="1" fold="1" page="1" pageScale="1" pageWidth="827" pageHeight="1169" math="0" shadow="0">
      <root>
        <mxCell id="0" />
        <mxCell id="1" parent="0" />
        <mxCell id="dc2O7IT22L6MNzAxC4Vd-1" value="主机初始化" style="rounded=0;whiteSpace=wrap;html=1;" vertex="1" parent="1">
          <mxGeometry x="70" y="30" width="120" height="60" as="geometry" />
        </mxCell>
        <mxCell id="dc2O7IT22L6MNzAxC4Vd-2" value="e52142Init" style="rounded=0;whiteSpace=wrap;html=1;" vertex="1" parent="1">
          <mxGeometry x="70" y="120" width="120" height="60" as="geometry" />
        </mxCell>
        <mxCell id="dc2O7IT22L6MNzAxC4Vd-3" value="&lt;div&gt;gpio初始化(引脚功能复用、io速率、上拉下拉)&lt;/div&gt;&lt;div&gt;RESB、INTB、DCR1B、DCR2B、RFC&lt;/div&gt;" style="rounded=0;whiteSpace=wrap;html=1;" vertex="1" parent="1">
          <mxGeometry x="280" y="50" width="230" height="100" as="geometry" />
        </mxCell>
        <mxCell id="dc2O7IT22L6MNzAxC4Vd-4" value="&lt;div&gt;io外部中断初始化&lt;/div&gt;&lt;div&gt;INTB、DCR1B、DCR2B&lt;/div&gt;" style="rounded=0;whiteSpace=wrap;html=1;" vertex="1" parent="1">
          <mxGeometry x="280" y="170" width="230" height="100" as="geometry" />
        </mxCell>
      </root>
    </mxGraphModel>
  </diagram>
</mxfile>
